<?xml version="1.0" encoding="UTF-8" standalone="no"?>
<!-- Created with Inkscape (http://www.inkscape.org/) -->

<svg
   xmlns:dc="http://purl.org/dc/elements/1.1/"
   xmlns:cc="http://creativecommons.org/ns#"
   xmlns:rdf="http://www.w3.org/1999/02/22-rdf-syntax-ns#"
   xmlns:svg="http://www.w3.org/2000/svg"
   xmlns="http://www.w3.org/2000/svg"
   xmlns:sodipodi="http://sodipodi.sourceforge.net/DTD/sodipodi-0.dtd"
   xmlns:inkscape="http://www.inkscape.org/namespaces/inkscape"
   width="210mm"
   height="80mm"
   viewBox="0 0 210 80"
   version="1.1"
   id="svg8"
   inkscape:version="0.92.3 (2405546, 2018-03-11)"
   sodipodi:docname="rails_zip.svg">
  <defs
     id="defs2" />
  <sodipodi:namedview
     id="base"
     pagecolor="#ffffff"
     bordercolor="#666666"
     borderopacity="1.0"
     inkscape:pageopacity="0.0"
     inkscape:pageshadow="2"
     inkscape:zoom="0.49497475"
     inkscape:cx="508.74459"
     inkscape:cy="370.58349"
     inkscape:document-units="mm"
     inkscape:current-layer="layer1"
     showgrid="false"
     inkscape:window-width="1201"
     inkscape:window-height="1016"
     inkscape:window-x="719"
     inkscape:window-y="27"
     inkscape:window-maximized="0" />
  <metadata
     id="metadata5">
    <rdf:RDF>
      <cc:Work
         rdf:about="">
        <dc:format>image/svg+xml</dc:format>
        <dc:type
           rdf:resource="http://purl.org/dc/dcmitype/StillImage" />
        <dc:title></dc:title>
      </cc:Work>
    </rdf:RDF>
  </metadata>
  <g
     inkscape:label="Calque 1"
     inkscape:groupmode="layer"
     id="layer1"
     transform="translate(0,-217)">
    <g
       id="g100"
       transform="matrix(0.15625,0,0,0.15625,135,217)">
      <path
         id="path21"
         d="M 128,0 C 110.4,0 96,14.4 96,32 v 448 c 0,17.6 14.4,32 32,32 h 320 c 17.6,0 32,-14.4 32,-32 V 128 L 352,0 Z"
         style="fill:#e2e5e7"
         inkscape:connector-curvature="0" />
      <path
         id="path23"
         d="m 384,128 h 96 L 352,0 v 96 c 0,17.6 14.4,32 32,32 z"
         style="fill:#b0b7bd"
         inkscape:connector-curvature="0" />
      <polygon
         id="polygon25"
         points="480,128 480,224 384,128 "
         style="fill:#cad1d8" />
      <path
         id="path27"
         d="m 416,416 c 0,8.8 -7.2,16 -16,16 H 48 c -8.8,0 -16,-7.2 -16,-16 V 256 c 0,-8.8 7.2,-16 16,-16 h 352 c 8.8,0 16,7.2 16,16 z"
         style="fill:#84bd5a"
         inkscape:connector-curvature="0" />
      <g
         id="g35">
	<path
   id="path29"
   d="m 132.64,384 c -8.064,0 -11.264,-7.792 -6.656,-13.296 l 45.552,-60.512 h -37.76 c -11.12,0 -10.224,-15.712 0,-15.712 h 51.568 c 9.712,0 12.528,9.184 5.632,16.624 l -43.632,56.656 h 41.584 c 10.24,0 11.52,16.256 -1.008,16.256 h -55.28 z"
   style="fill:#ffffff"
   inkscape:connector-curvature="0" />

	<path
   id="path31"
   d="m 212.048,303.152 c 0,-10.496 16.896,-10.88 16.896,0 v 73.04 c 0,10.608 -16.896,10.88 -16.896,0 z"
   style="fill:#ffffff"
   inkscape:connector-curvature="0" />

	<path
   id="path33"
   d="m 251.616,303.152 c 0,-4.224 3.328,-8.832 8.704,-8.832 h 29.552 c 16.64,0 31.616,11.136 31.616,32.48 0,20.224 -14.976,31.488 -31.616,31.488 h -21.36 v 16.896 c 0,5.632 -3.584,8.816 -8.192,8.816 -4.224,0 -8.704,-3.184 -8.704,-8.816 z m 16.88,7.28 v 31.872 h 21.36 c 8.576,0 15.36,-7.568 15.36,-15.504 0,-8.944 -6.784,-16.368 -15.36,-16.368 z"
   style="fill:#ffffff"
   inkscape:connector-curvature="0" />

</g>
      <path
         id="path37"
         d="M 400,432 H 96 v 16 h 304 c 8.8,0 16,-7.2 16,-16 v -16 c 0,8.8 -7.2,16 -16,16 z"
         style="fill:#cad1d8"
         inkscape:connector-curvature="0" />
      <g
         id="g39">
</g>
      <g
         id="g41">
</g>
      <g
         id="g43">
</g>
      <g
         id="g45">
</g>
      <g
         id="g47">
</g>
      <g
         id="g49">
</g>
      <g
         id="g51">
</g>
      <g
         id="g53">
</g>
      <g
         id="g55">
</g>
      <g
         id="g57">
</g>
      <g
         id="g59">
</g>
      <g
         id="g61">
</g>
      <g
         id="g63">
</g>
      <g
         id="g65">
</g>
      <g
         id="g67">
</g>
    </g>
    <g
       id="g140"
       transform="matrix(0.8,0,0,0.8,0,217)">
      <path
         id="path102"
         d="M 1,12 C 1,5 5,1 12,1 h 87 v 87 c 0,5 -5,11 -11,11 H 1 Z"
         inkscape:connector-curvature="0"
         style="fill:#772233;stroke:#771122;stroke-width:2" />
      <path
         id="path104"
         d="M 13,22 H 93 V 82 L 53,97 14,81 Z"
         inkscape:connector-curvature="0"
         style="fill:#aa3333" />
      <path
         id="path106"
         d="M 25,2 52,20 80,31 98,79 V 2 Z"
         inkscape:connector-curvature="0"
         style="fill:#aa5544" />
      <path
         id="path108"
         d="m 80,31 19,8 -9,20 z"
         inkscape:connector-curvature="0"
         style="fill:#d5a67c" />
      <path
         id="path110"
         d="m 78,2 2,29 19,8 z"
         inkscape:connector-curvature="0"
         style="fill:#cc9988" />
      <path
         id="path112"
         d="M 53,20 78,2 80,31 Z"
         inkscape:connector-curvature="0"
         style="fill:#bb7766" />
      <path
         id="path114"
         d="m 90,58 8,20 -20,7 z"
         inkscape:connector-curvature="0"
         style="fill:#bb6655" />
      <path
         id="path116"
         d="m 98,78 -47,18 2,2 H 89 Z M 25,2 53,20 26,30 14,57 3,38 Z"
         inkscape:connector-curvature="0"
         style="fill:#a72d3a" />
      <path
         id="path118"
         d="M 14,56 3,79 29,85 Z"
         inkscape:connector-curvature="0"
         style="fill:#992244" />
      <path
         id="path120"
         d="M 93,23 C 55,-12 15,40 16,92 H 57 C 40,40 64,11 92,25 Z m -31,57 -7,-1 2,5 h 7 z M 15,72 8,71 6,78 14,79 Z M 58,62 53,59 v 5 l 6,3 z m -36,-15 -7,-3 -2,6 7,3 z m 37,1 -4,-4 -1,4 4,4 z m 3,-17 -2,4 3,3 1,-3 z m -28,-5 -4,-3 -4,4 5,4 z m 39,-1 h -4 l 1,4 3,-1 z m 13,-1 h -4 v 2 h 4 z m 1,-10 -4,-3 v 3 l 4,2 z m -37,-1 -3,-4 -4,3 3,4 z M 68,10 66,6 h -5 l 2,4 z"
         inkscape:connector-curvature="0"
         style="fill:#ffffff" />
    </g>
    <g
       id="g203"
       transform="matrix(0.10570623,0,0,0.10570623,83.647199,230.35553)">
      <path
         id="path142"
         d="m 486.006,355.446 18.117,-10.24 c -1.182,-6.695 -2.757,-13.391 -5.12,-20.086 h -20.874 l -11.422,-20.086 10.634,-18.117 c -4.332,-5.12 -9.058,-10.24 -14.572,-14.572 l -18.117,10.24 -20.086,-11.815 v -20.874 c -0.394,0 -0.788,-0.394 -1.575,-0.394 -5.908,-1.969 -12.209,-3.938 -18.511,-5.12 l -10.634,18.117 h -23.237 l -10.24,-18.117 c -6.695,1.182 -13.391,2.757 -20.086,5.12 v 20.874 l -20.086,11.422 -18.117,-10.634 c -5.12,4.332 -10.24,9.058 -14.572,14.572 l 10.24,18.117 -11.815,20.086 h -20.874 c -2.363,6.695 -4.332,12.997 -5.514,19.692 l 18.117,10.634 v 23.237 l -18.117,10.24 c 1.182,6.695 2.757,13.391 5.12,20.086 h 20.874 l 11.422,20.086 -10.634,18.117 c 4.332,5.12 9.058,10.24 14.572,14.572 l 18.117,-10.24 20.086,11.815 v 20.874 c 0.394,0 0.788,0.394 1.575,0.394 5.908,1.969 12.209,3.938 18.511,5.12 l 10.634,-18.117 h 23.237 l 10.24,18.117 c 6.695,-1.182 13.391,-2.757 20.086,-5.12 v -20.874 l 20.086,-11.422 18.117,10.634 c 5.12,-4.332 10.24,-9.058 14.572,-14.572 l -10.24,-18.117 11.815,-20.086 h 20.874 c 2.363,-6.695 4.332,-12.997 5.514,-19.692 l -18.117,-10.634 z m -103.975,79.557 c -37.809,0 -68.923,-30.72 -68.923,-68.529 0,-37.809 30.72,-68.923 68.923,-68.923 37.809,0 68.923,30.72 68.923,68.529 0,37.809 -31.114,68.923 -68.923,68.923 z"
         style="fill:#415f6f"
         inkscape:connector-curvature="0" />
      <path
         id="path144"
         d="m 274.905,240.049 c 0,-7.483 -0.394,-15.36 -1.575,-22.843 l -22.449,-4.726 -8.271,-24.418 15.36,-17.329 c -3.545,-6.695 -7.877,-12.997 -12.603,-18.905 l -22.055,7.483 -19.298,-16.935 4.726,-22.843 c -6.695,-3.938 -13.391,-7.483 -20.48,-10.24 l -14.966,17.329 -25.206,-5.12 -7.483,-22.055 c -7.483,0 -15.36,0.394 -22.843,1.575 l -4.726,22.449 -24.418,8.271 -17.329,-15.36 c -6.695,3.545 -12.997,7.877 -18.905,12.603 l 7.483,22.055 -16.935,19.298 -22.843,-4.726 c -3.938,6.695 -7.483,13.391 -10.24,20.48 l 17.329,15.36 -5.12,25.206 L 0,233.748 c 0,7.483 0.394,15.36 1.575,22.843 l 22.843,4.726 8.271,24.418 -15.36,17.329 c 3.545,6.695 7.877,12.997 12.603,18.905 l 22.055,-7.483 19.298,16.935 -5.12,22.843 c 6.695,3.938 13.391,7.483 20.48,10.24 l 15.36,-17.329 25.206,5.12 7.483,22.055 c 7.483,0 15.36,-0.394 22.843,-1.575 l 4.726,-22.449 24.418,-8.271 17.329,15.36 c 6.695,-3.545 12.997,-7.877 18.905,-12.603 l -7.483,-22.055 16.935,-19.298 22.843,4.726 c 3.938,-6.695 7.483,-13.391 10.24,-20.48 l -17.329,-15.36 5.12,-25.206 z m -137.453,72.862 c -42.142,0 -76.406,-34.265 -76.406,-76.406 0,-42.141 34.265,-76.406 76.406,-76.406 42.141,0 76.406,34.265 76.406,76.406 0,42.141 -34.264,76.406 -76.406,76.406 z"
         style="fill:#26a6d1"
         inkscape:connector-curvature="0" />
      <path
         id="path146"
         d="m 456.862,125.046 16.542,-6.695 c -0.394,-5.908 -1.182,-11.815 -2.363,-17.723 l -17.723,-2.363 -7.483,-18.511 11.028,-14.178 c -3.151,-5.12 -6.695,-9.846 -10.634,-14.178 l -16.542,6.695 -15.754,-12.209 2.363,-17.723 -1.182,-0.788 c -5.12,-2.363 -10.24,-4.726 -15.36,-6.302 l -11.028,14.178 -19.692,-2.757 -6.695,-16.935 c -5.908,0.394 -11.815,0.788 -17.723,1.969 l -2.363,17.723 -18.905,7.877 -14.178,-11.028 c -5.12,3.151 -9.846,6.695 -14.178,10.634 l 6.695,16.542 -12.209,15.754 -17.723,-2.363 c -2.757,5.12 -5.12,10.634 -7.089,16.542 l 14.178,11.028 -2.757,19.692 -16.542,6.695 c 0.394,5.908 1.182,11.815 2.363,17.723 l 17.723,2.363 7.483,18.511 -11.028,14.178 c 3.151,5.12 6.695,9.846 10.634,14.178 l 16.542,-6.695 15.754,12.209 -2.363,17.723 1.182,0.788 c 5.12,2.363 10.24,4.726 15.36,6.302 l 11.028,-14.178 19.692,2.757 6.695,16.542 c 5.908,-0.394 11.815,-0.788 17.723,-2.363 l 2.363,-17.723 18.511,-7.483 14.178,11.028 c 5.12,-3.151 9.846,-6.695 14.178,-10.634 l -6.695,-16.542 12.209,-15.754 17.723,2.363 c 2.757,-5.12 5.12,-10.634 7.089,-16.542 l -14.178,-11.028 c 0,0 3.151,-19.299 3.151,-19.299 z m -90.191,58.289 c -33.871,0 -61.046,-27.175 -61.046,-61.046 0,-33.871 27.175,-61.046 61.046,-61.046 33.871,0 61.046,27.175 61.046,61.046 0,33.871 -27.175,61.046 -61.046,61.046 z"
         style="fill:#638090"
         inkscape:connector-curvature="0" />
      <g
         id="g148">
</g>
      <g
         id="g150">
</g>
      <g
         id="g152">
</g>
      <g
         id="g154">
</g>
      <g
         id="g156">
</g>
      <g
         id="g158">
</g>
      <g
         id="g160">
</g>
      <g
         id="g162">
</g>
      <g
         id="g164">
</g>
      <g
         id="g166">
</g>
      <g
         id="g168">
</g>
      <g
         id="g170">
</g>
      <g
         id="g172">
</g>
      <g
         id="g174">
</g>
      <g
         id="g176">
</g>
    </g>
  </g>
</svg>
